<?xml version="1.0" encoding="UTF-8"?>
<svg version="1.1" xmlns="http://www.w3.org/2000/svg" width="512" height="319">
<path d="M0 0 C3.48521293 3.31520254 4.28508549 6.27693622 4.5625 10.9375 C3.97890769 22.8263499 -1.94030215 34.69835712 -6.6875 45.4375 C-7.24153156 46.7028219 -7.79523116 47.96828919 -8.34863281 49.23388672 C-15.01980573 64.44810617 -21.852917 79.5930756 -28.71577454 94.72163391 C-30.63892923 98.96465872 -32.53847865 103.21652872 -34.40820312 107.48339844 C-34.80763123 108.38851166 -35.20705933 109.29362488 -35.61859131 110.22616577 C-36.38302074 111.95984263 -37.14171778 113.69606275 -37.89361572 115.43521118 C-40.62105782 121.59717199 -43.47418471 127.30455455 -50 130 C-54.838884 130.64518453 -58.64350986 131.03351629 -62.625 128 C-63.07875 127.34 -63.5325 126.68 -64 126 C-63.01 124.515 -63.01 124.515 -62 123 C-59.85605674 113.49464127 -64.97853712 103.74971857 -68.3125 95.0625 C-68.97982525 93.29034867 -69.64564217 91.51762873 -70.31005859 89.74438477 C-71.74948223 85.90788712 -73.19763619 82.07481692 -74.64990234 78.24316406 C-77.16278054 71.59289936 -79.60765786 64.91832483 -82.05078125 58.2421875 C-83.32379596 54.77638677 -84.59802685 51.31103637 -85.87289429 47.84591675 C-86.70327273 45.58550394 -87.53128154 43.32421913 -88.35684204 41.06204224 C-89.5234781 37.87011394 -90.70175467 34.6827092 -91.8828125 31.49609375 C-92.22504349 30.55188568 -92.56727448 29.60767761 -92.9198761 28.63485718 C-94.82186943 23.54032384 -96.97803503 19.07215581 -100.05099487 14.5763092 C-101 13 -101 13 -101 11 C-105.8043208 8.5978396 -110.73103895 8.38877771 -116 8 C-116 5.69 -116 3.38 -116 1 C-99.83 1 -83.66 1 -67 1 C-67 3.31 -67 5.62 -67 8 C-67.68707031 8.03738281 -68.37414062 8.07476562 -69.08203125 8.11328125 C-69.98308594 8.17902344 -70.88414062 8.24476562 -71.8125 8.3125 C-72.70582031 8.37050781 -73.59914062 8.42851563 -74.51953125 8.48828125 C-76.9871699 8.85306113 -76.9871699 8.85306113 -78.82421875 10.10546875 C-80.6296391 13.01453475 -80.42275714 15.70955572 -80 19 C-78.8974119 23.03140705 -77.45855603 26.92471894 -76.01171875 30.84375 C-75.59696793 31.99460083 -75.1822171 33.14545166 -74.75489807 34.33117676 C-73.63898718 37.42182727 -72.51355528 40.50879364 -71.38368225 43.59436035 C-70.22320848 46.77089182 -69.07534306 49.95196724 -67.92675781 53.1328125 C-66.11755313 58.13988095 -64.30267595 63.14484224 -62.48388672 68.1484375 C-59.59693321 76.09912145 -56.75855978 84.06654179 -53.94155884 92.04223633 C-53.26129268 93.96803107 -52.57954002 95.8932926 -51.8972168 97.81835938 C-50.93073041 100.54530932 -49.96496479 103.27251137 -49 106 C-46.31545357 102.74942277 -44.74315804 99.42389532 -43.1015625 95.55078125 C-42.83024506 94.91356644 -42.55892761 94.27635162 -42.27938843 93.61982727 C-41.38813658 91.52004777 -40.50595614 89.41661801 -39.625 87.3125 C-39.16746338 86.2257901 -39.16746338 86.2257901 -38.70068359 85.11712646 C-26.09907003 55.34916774 -26.09907003 55.34916774 -15.1875 24.9375 C-14.95095703 24.22480957 -14.71441406 23.51211914 -14.47070312 22.77783203 C-12.50046445 16.37142898 -12.11451222 10.36130075 -14.5 4 C-14.7784375 3.236875 -15.056875 2.47375 -15.34375 1.6875 C-15.5603125 1.130625 -15.776875 0.57375 -16 0 C-10.27135322 -2.19394983 -5.73710244 -2.46983367 0 0 Z " fill="#E85121" transform="translate(242,71)"/>
<path d="M0 0 C2.85475306 -0.08156437 5.70713565 -0.14076372 8.5625 -0.1875 C9.36236328 -0.21263672 10.16222656 -0.23777344 10.98632812 -0.26367188 C16.43168849 -0.33034976 20.28581223 0.16435363 25 3 C28.63109531 8.33819064 28.42342744 13.37750369 28.38476562 19.59179688 C28.3901384 20.64617447 28.39551117 21.70055206 28.40104675 22.78688049 C28.41081133 25.07034983 28.41377291 27.35385622 28.41069031 29.63734436 C28.40620855 33.25218391 28.4202229 36.86653491 28.43908691 40.48132324 C28.482092 49.45735243 28.49311825 58.43337073 28.50531006 67.40948486 C28.51683772 74.9986048 28.54039799 82.58750203 28.58000183 90.17652893 C28.5935783 93.73622985 28.58940017 97.29563 28.58459473 100.85534668 C28.59393519 103.03963607 28.60410398 105.22392212 28.61523438 107.40820312 C28.60908615 108.3964357 28.60293793 109.38466827 28.59660339 110.40284729 C28.6455166 115.86932589 28.86855606 120.86855606 33 125 C34.68183948 125.23287008 36.3712416 125.41264166 38.0625 125.5625 C39.44115234 125.68818359 39.44115234 125.68818359 40.84765625 125.81640625 C41.55792969 125.87699219 42.26820313 125.93757813 43 126 C43 127.98 43 129.96 43 132 C40.14479219 132.10876982 37.29379439 132.18766466 34.4375 132.25 C33.63763672 132.28351563 32.83777344 132.31703125 32.01367188 132.3515625 C26.13369835 132.44756207 22.82207182 131.4034494 18 128 C14.54457821 123.50795168 13.88306869 118.92431835 13.8581543 113.3684082 C13.84760262 112.03595818 13.84760262 112.03595818 13.83683777 110.67658997 C13.83267349 109.72757309 13.82850922 108.77855621 13.82421875 107.80078125 C13.80101332 105.76626578 13.77689569 103.73176054 13.75195312 101.69726562 C13.71693478 98.50912683 13.68753743 95.32136386 13.67407227 92.13305664 C13.65848728 89.04267443 13.61820811 85.95337343 13.57421875 82.86328125 C13.57612717 81.92438553 13.57803558 80.98548981 13.58000183 80.0181427 C13.43701125 72.17915868 11.48444901 64.99667778 6.75 58.625 C0.59904909 52.75363777 -5.37574109 51.29629949 -13.8203125 50.90625 C-18.39925351 51.04125563 -21.9311743 51.92296136 -26 54 C-26.68707031 54.34546875 -27.37414062 54.6909375 -28.08203125 55.046875 C-35.72840029 59.78382255 -39.48470877 68.699848 -41.87890625 77.07421875 C-44.3232876 89.33031266 -43.13537058 102.14291926 -36.51953125 112.99609375 C-31.7504806 119.28535592 -26.43704438 122.95598956 -18.8125 124.75 C-10.28714144 125.30903991 -3.83347304 123.00103334 3 118 C4.89423446 120.65192824 6.01823249 122.25246784 5.9375 125.5625 C4.75385592 128.63997462 3.62866488 129.99391364 1 132 C-4.31716197 133.86837303 -9.1340765 134.38696405 -14.75 134.375 C-15.53987305 134.37338867 -16.32974609 134.37177734 -17.14355469 134.37011719 C-29.22675759 134.11807492 -38.60788796 129.13684655 -46.97265625 120.53125 C-55.90146248 109.38314512 -59.11902126 96.07518934 -58 82 C-55.96018442 68.53402996 -50.88803294 57.04367828 -40.0234375 48.43359375 C-30.09302842 41.80672714 -17.75527459 39.53308724 -6.0390625 41.49609375 C1.37453441 43.14874697 7.57204879 45.57204879 13 51 C13.09880115 45.21595259 13.1714363 39.43239516 13.21972656 33.64770508 C13.23985481 31.6795191 13.26716019 29.71139301 13.30175781 27.7434082 C13.35022311 24.9160282 13.37295618 22.08943799 13.390625 19.26171875 C13.42159271 17.93970711 13.42159271 17.93970711 13.45318604 16.59098816 C13.58638236 11.81552759 13.58638236 11.81552759 11.12304688 7.953125 C8.75245236 6.88886546 6.83857234 6.5028362 4.25 6.3125 C3.45078125 6.24675781 2.6515625 6.18101563 1.828125 6.11328125 C1.22484375 6.07589844 0.6215625 6.03851563 0 6 C0 4.02 0 2.04 0 0 Z " fill="#E85121" transform="translate(380,67)"/>
<path d="M0 0 C5.93408037 4.5341825 8.69048476 10.43735403 9.93359375 17.6796875 C10.03379838 19.48235677 10.08865486 21.28790459 10.10717773 23.09326172 C10.12066757 24.15141083 10.13415741 25.20955994 10.14805603 26.29977417 C10.15849442 27.43319244 10.1689328 28.56661072 10.1796875 29.734375 C10.2126222 32.1471391 10.24583391 34.55989942 10.27929688 36.97265625 C10.32670448 40.76673836 10.37115702 44.56080478 10.41040039 48.35498047 C10.45019541 52.02327067 10.50171627 55.69125468 10.5546875 59.359375 C10.56310165 60.48874481 10.57151581 61.61811462 10.58018494 62.78170776 C10.45006263 72.5067674 10.45006263 72.5067674 14.93359375 80.6796875 C17.58896747 81.24488753 20.22504088 81.41756948 22.93359375 81.6796875 C22.93359375 83.6596875 22.93359375 85.6396875 22.93359375 87.6796875 C20.39127033 87.76121094 17.85160173 87.82042466 15.30859375 87.8671875 C14.59574219 87.89232422 13.88289063 87.91746094 13.1484375 87.94335938 C8.33852414 88.00955084 5.02464558 87.47543495 0.93359375 84.6796875 C-2.91582741 80.0135234 -3.622219 76.31536362 -3.45703125 70.4375 C-3.45137146 69.66912811 -3.44571167 68.90075623 -3.43988037 68.10910034 C-3.41762798 65.67364129 -3.36745666 63.23969593 -3.31640625 60.8046875 C-3.29632667 59.1458547 -3.27807845 57.48699866 -3.26171875 55.828125 C-3.21780031 51.77806951 -3.14885388 47.72913444 -3.06640625 43.6796875 C-7.52604921 43.93115755 -11.98364811 44.20940264 -16.44140625 44.4921875 C-17.69308594 44.56244141 -18.94476563 44.63269531 -20.234375 44.70507812 C-30.28939297 45.36312904 -39.8307406 46.08223857 -47.06640625 53.6796875 C-49.8861995 58.16572222 -49.58510335 63.55034951 -49.06640625 68.6796875 C-47.32233035 73.9119152 -44.82532265 76.00279703 -40.06640625 78.6796875 C-35.03141164 80.35801904 -30.39611626 80.59249785 -25.39453125 78.6328125 C-22.90709216 77.38173367 -20.48506266 76.05819633 -18.06640625 74.6796875 C-16.73717385 74.00488127 -15.40520848 73.33530232 -14.06640625 72.6796875 C-12.50390625 73.7421875 -12.50390625 73.7421875 -11.06640625 75.6796875 C-11.13613034 79.51451259 -11.47568335 81.87017834 -13.75390625 84.9921875 C-21.15295705 90.39149484 -31.5759189 90.24240911 -40.31640625 88.9921875 C-49.74305258 87.14382547 -55.65507928 83.41764162 -61.31640625 75.5546875 C-64.95217787 69.58163412 -64.73377972 63.49310502 -64.06640625 56.6796875 C-62.19493355 50.26071104 -58.92733878 45.59840519 -53.33984375 41.921875 C-37.92572577 33.49972806 -20.10718589 34.35656887 -3.06640625 34.6796875 C-2.99653726 21.02657595 -2.99653726 21.02657595 -8.4921875 9.0625 C-14.19699429 4.05132977 -20.02036338 4.25688108 -27.25390625 4.41015625 C-33.11842101 4.82475822 -37.64181084 5.97371929 -41.6484375 10.4453125 C-44.69951809 14.91202415 -46.03139531 19.41054087 -47.06640625 24.6796875 C-50.03153895 24.35022831 -51.84901168 23.83065595 -54.31640625 22.1171875 C-56.69953482 18.79782985 -57.23731106 15.68041378 -57.06640625 11.6796875 C-55.00536932 4.94696687 -49.63388286 0.61680458 -43.61328125 -2.65234375 C-30.42427734 -7.98446961 -12.09185352 -7.7259858 0 0 Z " fill="#E85121" transform="translate(487.06640625,111.3203125)"/>
<path d="M0 0 C7.8489198 6.42038429 13.12048764 14.00938165 14.6875 24.1875 C14.82776782 26.51810375 14.90731087 28.85287423 14.9375 31.1875 C14.96328125 32.38375 14.9890625 33.58 15.015625 34.8125 C14.65876669 38.48304266 13.9096451 40.28002043 11.6875 43.1875 C8.03349783 45.62350144 6.13929806 45.47939078 1.78125 45.56640625 C0.76133972 45.59189796 0.76133972 45.59189796 -0.2791748 45.61790466 C-2.45685481 45.67096452 -4.63452328 45.71119364 -6.8125 45.75 C-24.30268626 45.74211669 -24.30268626 45.74211669 -41.3125 49.1875 C-43.15185859 46.08358238 -43.86722439 43.79320855 -43.3125 40.1875 C-38.8742441 35.90228741 -34.02700806 36.00949703 -28.1796875 35.90625 C-26.99102585 35.87863586 -26.99102585 35.87863586 -25.77835083 35.85046387 C-22.38703923 35.77176422 -18.99553282 35.70384086 -15.60400391 35.63525391 C-13.12912763 35.5836644 -10.65442925 35.52638058 -8.1796875 35.46875 C-7.02036209 35.44838684 -7.02036209 35.44838684 -5.83761597 35.4276123 C-2.27789312 35.66680469 -2.27789312 35.66680469 0.6875 34.1875 C1.35025158 25.07466575 -0.98097583 17.54132643 -6.3125 10.1875 C-6.3125 9.5275 -6.3125 8.8675 -6.3125 8.1875 C-14.99972126 3.48192182 -23.35269281 1.30516657 -33.12890625 3.94921875 C-42.38107997 7.43774327 -46.90989615 12.43304277 -51.3125 21.1875 C-56.73381425 33.9558463 -56.15550002 47.46306459 -51.625 60.3125 C-48.26636683 68.14931073 -43.07422258 73.82132902 -35.25 77.33984375 C-26.67182617 79.81519444 -17.45796819 79.19779591 -9.39453125 75.38671875 C-3.98339491 72.26998544 -0.52627311 68.5025863 2.6875 63.1875 C6.34066671 64.43726756 7.46815836 64.85848753 9.6875 68.1875 C10.29594391 72.01200456 9.81096933 74.50866635 7.8125 77.75 C2.81965884 84.14309973 -5.56498929 86.83941813 -13.3125 88.1875 C-27.11420912 89.40288842 -40.64151662 89.32049691 -52.1875 80.875 C-61.52685641 72.90114516 -68.33643655 62.42752848 -69.53320312 49.87207031 C-70.32025263 32.7637484 -67.99818232 17.7751706 -56.3125 4.5 C-41.58763047 -9.39948447 -16.53285973 -11.56989996 0 0 Z " fill="#E85121" transform="translate(304.3125,112.8125)"/>
<path d="M0 0 C0.93423645 3.01031744 1.04449911 3.86650268 0 7 C-0.99 7 -1.98 7 -3 7 C-0.04622502 9.36980013 -0.04622502 9.36980013 4 9 C3.39375 14.45625 3.39375 14.45625 1.6875 16.8125 C0 18 0 18 -2.0625 18.4375 C-4.15577977 18.801713 -4.15577977 18.801713 -5 20.75 C-5.33 21.4925 -5.66 22.235 -6 23 C-7.3050581 24.68889872 -8.63360658 26.3603279 -10 28 C-9.67 28.33 -9.34 28.66 -9 29 C-8.67 28.01 -8.34 27.02 -8 26 C-7.34 26 -6.68 26 -6 26 C-5.71125 26.639375 -5.4225 27.27875 -5.125 27.9375 C-4.17176549 30.15206079 -4.17176549 30.15206079 -2 31 C-2 31.66 -2 32.32 -2 33 C-2.66 33.66 -3.32 34.32 -4 35 C-4.79792969 34.9484375 -5.59585938 34.896875 -6.41796875 34.84375 C-9.15289321 34.70874029 -9.15289321 34.70874029 -10.80078125 36.96875 C-11.29964844 37.8040625 -11.79851563 38.639375 -12.3125 39.5 C-12.82425781 40.3353125 -13.33601563 41.170625 -13.86328125 42.03125 C-14.23839844 42.6809375 -14.61351562 43.330625 -15 44 C-12.24282298 42.62141149 -11.53678254 40.62533685 -10 38 C-8 36 -8 36 -5.375 35.875 C-4.59125 35.91625 -3.8075 35.9575 -3 36 C-3.34848234 38.57876935 -3.63551717 40.50123403 -5.1875 42.625 C-7 44 -7 44 -9.9375 45.375 C-14.22805501 47.65162102 -16.26524464 49.94394637 -17.91015625 54.546875 C-18.66126305 57.02028716 -19.35825041 59.49620427 -20 62 C-19.071875 61.34 -18.14375 60.68 -17.1875 60 C-14 58 -14 58 -11 58 C-11.60714286 63.46428571 -11.60714286 63.46428571 -13.375 65.875 C-15 67 -15 67 -18 67 C-14.49777237 72.11672973 -11.41372419 75.90644332 -6 79 C-5.67 78.67 -5.34 78.34 -5 78 C-5.66 77.2575 -6.32 76.515 -7 75.75 C-10.20125437 70.76253848 -10.01953734 65.68760768 -9 60 C-5.53906465 49.08737175 1.34627298 40.81213671 8.9296875 32.4921875 C13.92059055 26.95925838 17.75521164 20.68949258 21 14 C23.20808081 19.19548425 22.93402724 22.58264203 22 28 C23.32 28.66 24.64 29.32 26 30 C25.01 30 24.02 30 23 30 C23.48210937 30.53109375 23.96421875 31.0621875 24.4609375 31.609375 C25.09257813 32.31578125 25.72421875 33.0221875 26.375 33.75 C27.00148437 34.44609375 27.62796875 35.1421875 28.2734375 35.859375 C29.87505183 37.84508688 30.96520068 39.67954093 32 42 C30.68 42.99 29.36 43.98 28 45 C28.19464844 45.56976563 28.38929687 46.13953125 28.58984375 46.7265625 C29.08540733 49.47340061 28.57914755 50.79949287 27.5625 53.375 C26.45296959 56.39511192 26 58.15138758 26 61.4375 C26 62.283125 26 63.12875 26 64 C22.91858128 66.05427915 22.3668193 66.2417974 18.91015625 66.16015625 C17.73356445 66.1437207 17.73356445 66.1437207 16.53320312 66.12695312 C15.71787109 66.10568359 14.90253906 66.08441406 14.0625 66.0625 C12.44931173 66.02790422 10.83601948 65.99780301 9.22265625 65.97265625 C8.50859619 65.95468994 7.79453613 65.93672363 7.05883789 65.91821289 C4.91365305 66.00343012 3.05877542 66.40909005 1 67 C1 68.98 1 70.96 1 73 C4.76036425 75.5069095 8.64772273 75.50552767 13 75 C18.69278918 73.65805338 22.0614029 71.40196147 26 67 C26.66 66.67 27.32 66.34 28 66 C25.13866637 74.34555643 19.63416956 78.13397824 12 82 C5.58998616 84.10308902 -1.66955774 83.89030516 -7.875 81.3125 C-15.16736045 77.59482605 -19.43760818 71.68717545 -22 64 C-21.92780403 60.62483853 -21.82769501 57.26137718 -21.609375 53.89257812 C-21.48627303 51.49897215 -21.48627303 51.49897215 -22 48 C-24.34095824 45.65493794 -24.34095824 45.65493794 -27 44 C-28.3125 40.75 -28.3125 40.75 -29 38 C-24.8252101 37.65210084 -23.20321755 38.39225238 -20 41 C-16.93594161 30.91414114 -15.7759652 22.94958196 -20 13 C-21.26578929 11.23640851 -21.26578929 11.23640851 -22.6875 9.75 C-25 7 -25 7 -25.3125 3.625 C-25.209375 2.75875 -25.10625 1.8925 -25 1 C-21.34683329 2.24976756 -20.21934164 2.67098753 -18 6 C-17.51000747 7.92730396 -17.02347759 9.85576465 -16.57421875 11.79296875 C-15.6596446 15.30816872 -14.32731422 18.62138198 -13 22 C-12.29866401 20.42274653 -11.614417 18.83788667 -10.9375 17.25 C-10.36322266 15.92742187 -10.36322266 15.92742187 -9.77734375 14.578125 C-8.95399992 11.84743691 -9.0226008 10.63098653 -10 8 C-9.34 8 -8.68 8 -8 8 C-8 7.01 -8 6.02 -8 5 C-7.34 5 -6.68 5 -6 5 C-5.67 3.68 -5.34 2.36 -5 1 C-4.34 1.66 -3.68 2.32 -3 3 C-2.01 2.01 -1.02 1.02 0 0 Z M-6 10 C-4.02 10.99 -4.02 10.99 -2 12 C-1.67 11.34 -1.34 10.68 -1 10 C-2.65 10 -4.3 10 -6 10 Z M-7 13 C-7.86627399 14.59766103 -8.71766465 16.20339944 -9.5625 17.8125 C-10.03816406 18.70582031 -10.51382813 19.59914063 -11.00390625 20.51953125 C-12.33728333 23.06644576 -12.33728333 23.06644576 -11 26 C-9.84604289 24.58994275 -8.70212534 23.17166542 -7.5625 21.75 C-6.92441406 20.96109375 -6.28632812 20.1721875 -5.62890625 19.359375 C-4.09494695 17.13752508 -3.42869754 15.63256518 -3 13 C-4.32 13 -5.64 13 -7 13 Z M-12 29 C-12.86627399 30.59766103 -13.71766465 32.20339944 -14.5625 33.8125 C-15.03816406 34.70582031 -15.51382813 35.59914063 -16.00390625 36.51953125 C-17.33728333 39.06644576 -17.33728333 39.06644576 -16 42 C-11.46739098 37.13418023 -11.46739098 37.13418023 -10.125 31 C-10.41375 30.34 -10.7025 29.68 -11 29 C-11.33 29 -11.66 29 -12 29 Z M-18 42 C-17 44 -17 44 -17 44 Z M-19 45 C-18 47 -18 47 -18 47 Z M-17 45 C-16 47 -16 47 -16 47 Z " fill="#C89A53" transform="translate(67,97)"/>
<path d="M0 0 C17.66105144 -0.54232868 35.11724392 5.25548979 48.36328125 17.16015625 C49.15992187 17.85367188 49.9565625 18.5471875 50.77734375 19.26171875 C64.9169331 32.37608108 71.83827488 50.35566307 72.67578125 69.47265625 C72.1238793 88.23732262 64.80902536 105.42094794 51.92578125 119.03515625 C36.51277521 133.31952111 18.21902392 139.07831424 -2.4375 138.50390625 C-20.57692094 137.5779194 -36.28017535 128.77654124 -48.81640625 115.92578125 C-52.9785792 111.09960405 -56.05797996 105.86853462 -58.94921875 100.22265625 C-59.27494873 99.59093506 -59.60067871 98.95921387 -59.9362793 98.30834961 C-64.40365515 89.14471025 -66.1849126 80.06545252 -66.07421875 69.91015625 C-66.06519531 68.90799072 -66.05617188 67.9058252 -66.046875 66.87329102 C-65.60396232 47.74038605 -58.17034285 32.5490357 -44.63671875 19.16015625 C-44.04761719 18.53753906 -43.45851563 17.91492188 -42.8515625 17.2734375 C-31.80557614 6.47022007 -15.0999722 0.9171835 0 0 Z M-41.63671875 19.16015625 C-42.29800781 19.74152344 -42.95929687 20.32289062 -43.640625 20.921875 C-55.45758326 31.97644885 -63.23123677 47.90810329 -63.97265625 64.140625 C-64.31829982 84.10628873 -59.46794376 101.1361467 -45.63671875 116.16015625 C-32.50335404 129.45976608 -15.88214242 136.3080313 2.80078125 136.47265625 C22.00300984 136.50797611 37.77885354 128.91298063 51.703125 115.98828125 C64.47824783 102.97294244 70.34378822 85.15222646 70.36328125 67.16015625 C69.14200929 47.19791097 60.77881037 30.70385007 45.99560547 17.52197266 C33.45982847 7.06361727 17.27932942 1.35433067 0.91015625 1.921875 C-14.89093734 3.40019817 -29.61792355 8.39502222 -41.63671875 19.16015625 Z " fill="#35434C" transform="translate(65.63671875,68.83984375)"/>
<path d="M0 0 C0.92232422 0.78310547 0.92232422 0.78310547 1.86328125 1.58203125 C11.25851965 10.14398908 16.57611547 21.88852527 17.3125 34.45703125 C17.91665452 51.14344338 13.84869905 64.62785051 2.4375 77.1875 C-8.93793165 87.88084581 -23.01058502 92.69024885 -38.484375 92.28125 C-53.57796431 91.07376286 -65.72584885 85.1507852 -76 74 C-86.0479407 60.83373287 -89.29335485 47.29699369 -88 31 C-85.6664494 17.18144433 -78.79631758 5.8851682 -68 -3 C-61.13561418 -7.76796528 -54.19049917 -11.26345009 -46 -13 C-45.32066406 -13.15339844 -44.64132813 -13.30679688 -43.94140625 -13.46484375 C-28.00335214 -16.14629331 -11.83112987 -10.54961484 0 0 Z M-73.9609375 5.578125 C-83.65293032 17.08968736 -86.89853454 30.21150393 -86.18359375 45.03222656 C-84.99729699 57.74705623 -78.20272642 69.4243759 -69 78 C-57.0231987 87.21432209 -43.99106161 91.00061698 -29 90 C-14.05216456 87.60306174 -2.3788517 80.37114166 6.953125 68.51953125 C15.06018067 55.96997285 17.22026066 41.06388319 14.3046875 26.53515625 C10.16955066 13.03515067 2.14999468 2.18944513 -10 -5 C-32.35641205 -15.69697944 -56.45385681 -12.85689283 -73.9609375 5.578125 Z " fill="#34434C" transform="translate(104,99)"/>
<path d="M0 0 C0.93423645 3.01031744 1.04449911 3.86650268 0 7 C-0.99 7 -1.98 7 -3 7 C-0.04622502 9.36980013 -0.04622502 9.36980013 4 9 C3.39375 14.45625 3.39375 14.45625 1.6875 16.8125 C0 18 0 18 -2.0625 18.4375 C-4.15577977 18.801713 -4.15577977 18.801713 -5 20.75 C-5.33 21.4925 -5.66 22.235 -6 23 C-7.3050581 24.68889872 -8.63360658 26.3603279 -10 28 C-9.67 28.33 -9.34 28.66 -9 29 C-8.67 28.01 -8.34 27.02 -8 26 C-7.34 26 -6.68 26 -6 26 C-5.71125 26.639375 -5.4225 27.27875 -5.125 27.9375 C-4.17176549 30.15206079 -4.17176549 30.15206079 -2 31 C-2 31.66 -2 32.32 -2 33 C-2.66 33.66 -3.32 34.32 -4 35 C-4.79792969 34.9484375 -5.59585938 34.896875 -6.41796875 34.84375 C-9.15289321 34.70874029 -9.15289321 34.70874029 -10.80078125 36.96875 C-11.29964844 37.8040625 -11.79851563 38.639375 -12.3125 39.5 C-12.82425781 40.3353125 -13.33601563 41.170625 -13.86328125 42.03125 C-14.23839844 42.6809375 -14.61351562 43.330625 -15 44 C-12.24282298 42.62141149 -11.53678254 40.62533685 -10 38 C-8 36 -8 36 -5.375 35.875 C-4.59125 35.91625 -3.8075 35.9575 -3 36 C-3.34848234 38.57876935 -3.63551717 40.50123403 -5.1875 42.625 C-7 44 -7 44 -9.9375 45.375 C-14.35450002 47.71871429 -16.33683234 49.98203489 -17.91015625 54.76953125 C-18.66448691 57.50266422 -19.36143848 60.23773768 -20 63 C-20.66 63 -21.32 63 -22 63 C-21.94199219 61.96359375 -21.88398437 60.9271875 -21.82421875 59.859375 C-21.77730962 58.48962844 -21.73181068 57.11983308 -21.6875 55.75 C-21.64560547 55.06808594 -21.60371094 54.38617188 -21.56054688 53.68359375 C-21.45252862 51.387149 -21.45252862 51.387149 -22 48 C-24.35087219 45.67729264 -24.35087219 45.67729264 -27 44 C-28.3125 40.75 -28.3125 40.75 -29 38 C-24.8252101 37.65210084 -23.20321755 38.39225238 -20 41 C-16.93594161 30.91414114 -15.7759652 22.94958196 -20 13 C-21.26578929 11.23640851 -21.26578929 11.23640851 -22.6875 9.75 C-25 7 -25 7 -25.3125 3.625 C-25.209375 2.75875 -25.10625 1.8925 -25 1 C-21.34683329 2.24976756 -20.21934164 2.67098753 -18 6 C-17.51000747 7.92730396 -17.02347759 9.85576465 -16.57421875 11.79296875 C-15.6596446 15.30816872 -14.32731422 18.62138198 -13 22 C-12.29866401 20.42274653 -11.614417 18.83788667 -10.9375 17.25 C-10.36322266 15.92742187 -10.36322266 15.92742187 -9.77734375 14.578125 C-8.95399992 11.84743691 -9.0226008 10.63098653 -10 8 C-9.34 8 -8.68 8 -8 8 C-8 7.01 -8 6.02 -8 5 C-7.34 5 -6.68 5 -6 5 C-5.67 3.68 -5.34 2.36 -5 1 C-4.34 1.66 -3.68 2.32 -3 3 C-2.01 2.01 -1.02 1.02 0 0 Z M-6 10 C-4.02 10.99 -4.02 10.99 -2 12 C-1.67 11.34 -1.34 10.68 -1 10 C-2.65 10 -4.3 10 -6 10 Z M-7 13 C-7.86627399 14.59766103 -8.71766465 16.20339944 -9.5625 17.8125 C-10.03816406 18.70582031 -10.51382813 19.59914063 -11.00390625 20.51953125 C-12.33728333 23.06644576 -12.33728333 23.06644576 -11 26 C-9.84604289 24.58994275 -8.70212534 23.17166542 -7.5625 21.75 C-6.92441406 20.96109375 -6.28632812 20.1721875 -5.62890625 19.359375 C-4.09494695 17.13752508 -3.42869754 15.63256518 -3 13 C-4.32 13 -5.64 13 -7 13 Z M-12 29 C-12.86627399 30.59766103 -13.71766465 32.20339944 -14.5625 33.8125 C-15.03816406 34.70582031 -15.51382813 35.59914063 -16.00390625 36.51953125 C-17.33728333 39.06644576 -17.33728333 39.06644576 -16 42 C-11.46739098 37.13418023 -11.46739098 37.13418023 -10.125 31 C-10.41375 30.34 -10.7025 29.68 -11 29 C-11.33 29 -11.66 29 -12 29 Z M-18 42 C-17 44 -17 44 -17 44 Z M-19 45 C-18 47 -18 47 -18 47 Z M-17 45 C-16 47 -16 47 -16 47 Z " fill="#F2CD74" transform="translate(67,97)"/>
<path d="M0 0 C2.0625 1.1875 2.0625 1.1875 3 3 C2.6875 5.6875 2.6875 5.6875 2 8 C1.34 8 0.68 8 0 8 C-0.66 6.68 -1.32 5.36 -2 4 C-3.65 4 -5.3 4 -7 4 C-7.33 5.65 -7.66 7.3 -8 9 C-7.195625 9.2475 -6.39125 9.495 -5.5625 9.75 C-3 11 -3 11 -2.1875 13.125 C-2.125625 13.74375 -2.06375 14.3625 -2 15 C-2.78375 14.95875 -3.5675 14.9175 -4.375 14.875 C-7.16116119 14.71271266 -7.16116119 14.71271266 -9 17 C-9.16681109 20.08347826 -9.16681109 20.08347826 -9 23 C-4.95632723 24.34789092 -1.22795591 24.55215842 3 24 C5.95400517 21.69218346 6.00746318 19.95929173 6.6875 16.25 C6.790625 15.1775 6.89375 14.105 7 13 C6.01 13.33 5.02 13.66 4 14 C3.67 14.99 3.34 15.98 3 17 C3.66 17 4.32 17 5 17 C4.67 17.99 4.34 18.98 4 20 C0.125 19.125 0.125 19.125 -1 18 C-1.375 15.625 -1.375 15.625 -1 13 C2.24437402 9.75562598 5.4485696 9.82374724 9.8125 9.8125 C11.54213041 9.86048182 13.27163534 9.91827348 15 10 C15 9.34 15 8.68 15 8 C15.99 8.33 16.98 8.66 18 9 C17.34 10.32 16.68 11.64 16 13 C14.35 13 12.7 13 11 13 C10.97873047 13.88751953 10.97873047 13.88751953 10.95703125 14.79296875 C10.68766836 19.25565665 10.46251397 21.43075204 7.5625 25 C3.09828503 28.48426534 -0.46433985 28.53725644 -6 28 C-9.67645004 26.40154346 -12.03535341 24.51568337 -14 21 C-14.46043998 17.22439213 -14.17175481 16.25763222 -12 13 C-11.34 13 -10.68 13 -10 13 C-10.66 12.01 -11.32 11.02 -12 10 C-12.65882353 3.85098039 -12.65882353 3.85098039 -10.5 1.0625 C-6.74515828 -0.53330773 -4.08109691 -0.3886759 0 0 Z " fill="#3B2121" transform="translate(195,216)"/>
<path d="M0 0 C1.66611905 -0.042721 3.33382885 -0.04063832 5 0 C6 1 6 1 6.09765625 4.59765625 C6.0909822 6.08596867 6.07902183 7.57426432 6.0625 9.0625 C6.05798828 9.82111328 6.05347656 10.57972656 6.04882812 11.36132812 C6.0370068 13.24091871 6.01907078 15.12046899 6 17 C8.99992729 15.70855022 8.99992729 15.70855022 12 14 C12.33 13.01 12.66 12.02 13 11 C12.34 11 11.68 11 11 11 C11 10.34 11 9.68 11 9 C13.97 9 16.94 9 20 9 C20 9.66 20 10.32 20 11 C18.7625 12.175625 18.7625 12.175625 17.5 13.375 C14.54022989 15.87859195 14.54022989 15.87859195 15 20 C16.58967433 23.25952141 16.58967433 23.25952141 19 26 C20.65 26.33 22.3 26.66 24 27 C24 21.72 24 16.44 24 11 C23.01 11 22.02 11 21 11 C21 10.34 21 9.68 21 9 C23.375 8.875 23.375 8.875 26 9 C29.15885717 12.15885717 28.4322943 16.40587417 28.56640625 20.67773438 C28.64574385 22.45593149 28.81605856 24.22956362 29 26 C29.66 26.33 30.32 26.66 31 27 C31 27.66 31 28.32 31 29 C28.92002174 29.2765289 26.8356692 29.52030075 24.75 29.75 C23.58984375 29.88921875 22.4296875 30.0284375 21.234375 30.171875 C18 30 18 30 15.6328125 28.18359375 C14 26 14 26 13.125 23.3125 C12.75375 22.549375 12.3825 21.78625 12 21 C8.94727535 20.10169161 8.94727535 20.10169161 6 20 C6.34227572 22.97065509 6.34227572 22.97065509 7 26 C7.66 26.33 8.32 26.66 9 27 C9 27.66 9 28.32 9 29 C6.03 29 3.06 29 0 29 C0 28.34 0 27.68 0 27 C0.66 26.67 1.32 26.34 2 26 C2.33 18.08 2.66 10.16 3 2 C2.01 2 1.02 2 0 2 C0 1.34 0 0.68 0 0 Z " fill="#3C2221" transform="translate(24,215)"/>
<path d="M0 0 C2.97 0 5.94 0 9 0 C9 0.66 9 1.32 9 2 C8.01 2.495 8.01 2.495 7 3 C6.53348793 5.12576782 6.53348793 5.12576782 6.375 7.5625 C6.25125 9.026875 6.1275 10.49125 6 12 C10.62 12 15.24 12 20 12 C19.67 9.03 19.34 6.06 19 3 C18.01 2.67 17.02 2.34 16 2 C16 1.34 16 0.68 16 0 C19.63 0 23.26 0 27 0 C27 0.66 27 1.32 27 2 C26.01 2.33 25.02 2.66 24 3 C24 10.26 24 17.52 24 25 C24.99 25.33 25.98 25.66 27 26 C27 26.66 27 27.32 27 28 C23.37 28 19.74 28 16 28 C16 27.34 16 26.68 16 26 C16.99 25.67 17.98 25.34 19 25 C19.33 21.7 19.66 18.4 20 15 C15.38 15 10.76 15 6 15 C6.12375 16.629375 6.2475 18.25875 6.375 19.9375 C6.44460937 20.85402344 6.51421875 21.77054688 6.5859375 22.71484375 C6.72257812 23.46894531 6.85921875 24.22304687 7 25 C7.66 25.33 8.32 25.66 9 26 C9 26.66 9 27.32 9 28 C6.03 28 3.06 28 0 28 C0 27.34 0 26.68 0 26 C0.66 25.67 1.32 25.34 2 25 C2 17.74 2 10.48 2 3 C1.34 2.67 0.68 2.34 0 2 C0 1.34 0 0.68 0 0 Z " fill="#3C2221" transform="translate(97,216)"/>
<path d="M0 0 C0.66 0 1.32 0 2 0 C2.28875 0.639375 2.5775 1.27875 2.875 1.9375 C3.82823451 4.15206079 3.82823451 4.15206079 6 5 C6 5.66 6 6.32 6 7 C5.34 7.66 4.68 8.32 4 9 C3.20207031 8.9484375 2.40414062 8.896875 1.58203125 8.84375 C-1.15289321 8.70874029 -1.15289321 8.70874029 -2.80078125 10.96875 C-3.29964844 11.8040625 -3.79851563 12.639375 -4.3125 13.5 C-4.82425781 14.3353125 -5.33601563 15.170625 -5.86328125 16.03125 C-6.23839844 16.6809375 -6.61351562 17.330625 -7 18 C-4.24282298 16.62141149 -3.53678254 14.62533685 -2 12 C0 10 0 10 2.625 9.875 C3.40875 9.91625 4.1925 9.9575 5 10 C4.65151766 12.57876935 4.36448283 14.50123403 2.8125 16.625 C1 18 1 18 -1.9375 19.375 C-6.35450002 21.71871429 -8.33683234 23.98203489 -9.91015625 28.76953125 C-10.66448691 31.50266422 -11.36143848 34.23773768 -12 37 C-12.66 37 -13.32 37 -14 37 C-13.94199219 35.96359375 -13.88398437 34.9271875 -13.82421875 33.859375 C-13.77730962 32.48962844 -13.73181068 31.11983308 -13.6875 29.75 C-13.64560547 29.06808594 -13.60371094 28.38617188 -13.56054688 27.68359375 C-13.45252862 25.387149 -13.45252862 25.387149 -14 22 C-16.35087219 19.67729264 -16.35087219 19.67729264 -19 18 C-20.3125 14.75 -20.3125 14.75 -21 12 C-17.85375007 11.73781251 -16.38162983 11.75245633 -13.6875 13.5 C-13.130625 13.995 -12.57375 14.49 -12 15 C-11.01 14.34 -10.02 13.68 -9 13 C-8.67 13.66 -8.34 14.32 -8 15 C-4.26428133 10.52170796 -4.26428133 10.52170796 -2.6875 5.0625 C-2.790625 4.381875 -2.89375 3.70125 -3 3 C-2.34 3 -1.68 3 -1 3 C-0.67 2.01 -0.34 1.02 0 0 Z M-10 16 C-9 18 -9 18 -9 18 Z M-11 19 C-10 21 -10 21 -10 21 Z M-9 19 C-8 21 -8 21 -8 21 Z " fill="#E0B566" transform="translate(59,123)"/>
<path d="M0 0 C3.37815219 1.33554854 4.13001771 3.02189661 5.58203125 6.2578125 C7.33391484 10.7025207 8.99820745 15.18219934 10.58178711 19.68969727 C11.72739211 23.59677964 11.72739211 23.59677964 14.6875 26.0625 C14.6875 26.7225 14.6875 27.3825 14.6875 28.0625 C11.7175 28.0625 8.7475 28.0625 5.6875 28.0625 C5.6875 27.4025 5.6875 26.7425 5.6875 26.0625 C6.3475 26.0625 7.0075 26.0625 7.6875 26.0625 C7.0275 23.7525 6.3675 21.4425 5.6875 19.0625 C0.7375 19.5575 0.7375 19.5575 -4.3125 20.0625 C-5.04584429 24.04004128 -5.04584429 24.04004128 -5.3125 28.0625 C-6.3025 28.3925 -7.2925 28.7225 -8.3125 29.0625 C-8.9725 28.7325 -9.6325 28.4025 -10.3125 28.0625 C-10.89428245 22.25391009 -8.9182488 18.41367583 -6.375 13.375 C-5.63548396 11.87170055 -4.89715317 10.36781731 -4.16015625 8.86328125 C-3.83023682 8.20497314 -3.50031738 7.54666504 -3.16040039 6.8684082 C-2.19365323 4.90086723 -2.19365323 4.90086723 -1.3125 2.0625 C-1.9725 1.7325 -2.6325 1.4025 -3.3125 1.0625 C-2.3125 0.0625 -2.3125 0.0625 0 0 Z M0.6875 6.0625 C-0.6325 9.3625 -1.9525 12.6625 -3.3125 16.0625 C-0.6725 16.0625 1.9675 16.0625 4.6875 16.0625 C3.6975 12.7625 2.7075 9.4625 1.6875 6.0625 C1.3575 6.0625 1.0275 6.0625 0.6875 6.0625 Z " fill="#3C2221" transform="translate(232.3125,215.9375)"/>
<path d="M0 0 C2.625 1.75 2.625 1.75 4 4 C3.9375 6.1875 3.9375 6.1875 3 8 C2.01 8.33 1.02 8.66 0 9 C-0.33 7.35 -0.66 5.7 -1 4 C-3.34533951 3.23043864 -3.34533951 3.23043864 -6 3 C-7.8354799 4.33378575 -7.8354799 4.33378575 -9 6 C-7.56934663 9.6500994 -6.04931399 10.80525954 -2.5625 12.5 C0.90808511 14.19241053 3.0020798 15.64220509 5 19 C4.9375 22.0625 4.9375 22.0625 4 25 C1.07044496 27.78537112 -0.99632269 28.411619 -5 28.375 C-5.845625 28.38273437 -6.69125 28.39046875 -7.5625 28.3984375 C-10.48507849 27.92070832 -11.88088271 27.04621188 -14 25 C-14.25 22.3125 -14.25 22.3125 -14 20 C-13.01 19.67 -12.02 19.34 -11 19 C-10.67 20.65 -10.34 22.3 -10 24 C-7.03 24 -4.06 24 -1 24 C-0.67 22.35 -0.34 20.7 0 19 C-0.77085938 18.60167969 -1.54171875 18.20335937 -2.3359375 17.79296875 C-3.33882812 17.26316406 -4.34171875 16.73335937 -5.375 16.1875 C-6.37273438 15.66542969 -7.37046875 15.14335937 -8.3984375 14.60546875 C-11 13 -11 13 -13 10 C-13.44710264 6.497696 -13.40404695 4.66755584 -11.5625 1.625 C-7.78487361 -0.77056795 -4.35388479 -0.7974148 0 0 Z " fill="#3C2221" transform="translate(18,216)"/>
<path d="M0 0 C2.375 -0.1875 2.375 -0.1875 5 0 C7.45391569 3.68087353 7.22802759 6.44355588 7.125 10.6875 C7.11597656 11.38939453 7.10695312 12.09128906 7.09765625 12.81445312 C7.07413704 14.54311525 7.03826713 16.27160145 7 18 C8.98 18 10.96 18 13 18 C13 12.72 13 7.44 13 2 C12.01 2 11.02 2 10 2 C10 1.34 10 0.68 10 0 C12.66666667 0 15.33333333 0 18 0 C19.010625 -0.04125 20.02125 -0.0825 21.0625 -0.125 C24 0 24 0 26 2 C26 3.32 26 4.64 26 6 C24.68 5.67 23.36 5.34 22 5 C22 4.34 22 3.68 22 3 C19.92934145 3.51191212 19.92934145 3.51191212 18 5 C17.29327794 8.10930941 17.29327794 8.10930941 17.25 11.625 C17.19328125 12.81351563 17.1365625 14.00203125 17.078125 15.2265625 C17.05234375 16.14179688 17.0265625 17.05703125 17 18 C17.66 18 18.32 18 19 18 C19 18.66 19 19.32 19 20 C12.73 20 6.46 20 0 20 C0 19.34 0 18.68 0 18 C0.99 18 1.98 18 3 18 C3 12.72 3 7.44 3 2 C2.01 2 1.02 2 0 2 C0 1.34 0 0.68 0 0 Z " fill="#3C2221" transform="translate(145,224)"/>
<path d="M0 0 C2.29296875 1.35546875 2.29296875 1.35546875 4 3 C4.25 5.6875 4.25 5.6875 4 8 C3.01 8.33 2.02 8.66 1 9 C0.34 7.35 -0.32 5.7 -1 4 C-6.64634999 3.42229548 -6.64634999 3.42229548 -11.4375 5.875 C-14.30785104 9.77867741 -14.53667047 13.25183074 -14 18 C-12.84367254 20.36293002 -11.85016245 22.14983755 -10 24 C-4.63445635 24.58081094 -4.63445635 24.58081094 0 22.5 C0.33 22.005 0.66 21.51 1 21 C1.99 21.33 2.98 21.66 4 22 C3.6875 23.875 3.6875 23.875 3 26 C-0.57897251 28.38598167 -2.71590055 28.78579503 -7 29 C-11.63849581 27.50624711 -14.91144181 25.80130239 -18 22 C-19.87664991 16.37005027 -19.93749151 10.90970492 -17.3125 5.5625 C-12.3049029 0.01354105 -7.34734697 -1.21858438 0 0 Z " fill="#3D2221" transform="translate(414,216)"/>
<path d="M0 0 C1.66611905 -0.042721 3.33382885 -0.04063832 5 0 C6.58272601 1.58272601 6.34735747 3.38034003 6.5625 5.5625 C6.64628906 6.38878906 6.73007812 7.21507812 6.81640625 8.06640625 C6.87699219 8.70449219 6.93757813 9.34257812 7 10 C7.33 9.67 7.66 9.34 8 9 C15.30434783 8.52875175 15.30434783 8.52875175 17.9375 10.3125 C20.19846195 13.90343957 20.10683493 17.06435162 20.0625 21.1875 C20.05347656 22.27417969 20.04445313 23.36085937 20.03515625 24.48046875 C20.02355469 25.31191406 20.01195312 26.14335937 20 27 C20.66 27 21.32 27 22 27 C22 27.66 22 28.32 22 29 C17.125 28.125 17.125 28.125 16 27 C15.76346477 24.47403741 15.57826308 21.96892793 15.4375 19.4375 C15.39431641 18.72658203 15.35113281 18.01566406 15.30664062 17.28320312 C15.20028223 15.52238088 15.09961154 13.7612168 15 12 C12.64828869 12.59861742 10.3140622 13.26924352 8 14 C6.76310938 16.47378124 6.86689913 18.17915317 6.875 20.9375 C6.87242187 21.81277344 6.86984375 22.68804687 6.8671875 23.58984375 C6.90177997 26.14459056 6.90177997 26.14459056 8 29 C5.36 29 2.72 29 0 29 C0 28.34 0 27.68 0 27 C0.66 26.67 1.32 26.34 2 26 C2 18.41 2 10.82 2 3 C1.34 2.67 0.68 2.34 0 2 C0 1.34 0 0.68 0 0 Z " fill="#3A211F" transform="translate(298,215)"/>
<path d="M0 0 C3.63465934 0.57591433 6.30663823 1.57053188 9.5 3.375 C23.58805735 10.57556265 38.40941498 10.40804384 53.30859375 6.22265625 C57.32806439 4.89133952 60.76245154 3.26103358 64.30078125 0.953125 C66 0 66 0 69 0 C67.96984458 2.8732648 67.1254921 3.91904374 64.5234375 5.59765625 C47.7611458 13.39648924 30.87303398 15.27432027 13.03125 9.24609375 C8.40897641 7.34595809 3.9350163 5.10892936 0 2 C0 1.34 0 0.68 0 0 Z " fill="#35434D" transform="translate(34,186)"/>
<path d="M0 0 C2.87436167 2.87436167 2.96762555 5.00027708 3.09765625 9.015625 C3.08605469 10.08296875 3.07445312 11.1503125 3.0625 12.25 C3.05347656 13.32765625 3.04445312 14.4053125 3.03515625 15.515625 C3.02355469 16.33546875 3.01195312 17.1553125 3 18 C3.66 18 4.32 18 5 18 C5 18.66 5 19.32 5 20 C0.125 19.125 0.125 19.125 -1 18 C-1.36760731 15.67182036 -1.70241581 13.3381615 -2 11 C-4.31 11.33 -6.62 11.66 -9 12 C-9 13.32 -9 14.64 -9 16 C-6.69 16 -4.38 16 -2 16 C-2 16.99 -2 17.98 -2 19 C-4.84083641 20.42041821 -6.85477278 20.31452272 -10 20 C-12.4375 18.375 -12.4375 18.375 -14 16 C-14 12.875 -14 12.875 -13 10 C-9.67697031 7.07573387 -5.17139721 7.86095343 -1 8 C-1.66 6.35 -2.32 4.7 -3 3 C-4.65 3 -6.3 3 -8 3 C-8.33 3.99 -8.66 4.98 -9 6 C-9.99 6 -10.98 6 -12 6 C-11.52 1.44 -11.52 1.44 -9.375 -0.375 C-6.00160352 -1.26273592 -3.37545659 -0.75010146 0 0 Z " fill="#3C2022" transform="translate(139,224)"/>
<path d="M0 0 C1.875 1.125 1.875 1.125 3 3 C3.75 6.625 3.75 6.625 4 10 C2.18884044 11.81115956 -0.61278227 11.38199448 -3.0625 11.5625 C-4.16722656 11.64628906 -5.27195312 11.73007813 -6.41015625 11.81640625 C-7.26480469 11.87699219 -8.11945313 11.93757812 -9 12 C-9 11.01 -9 10.02 -9 9 C-6.04335481 7.5216774 -3.25770263 7.93967217 0 8 C-0.66 6.35 -1.32 4.7 -2 3 C-4.3431213 3.25561323 -6.67843403 3.59270772 -9 4 C-10.54586876 7.09173752 -10.29359521 9.59429552 -10 13 C-8.47722993 15.60720318 -8.47722993 15.60720318 -6 17 C-3.32024404 17.01453953 -3.32024404 17.01453953 -1 16 C-0.67 15.34 -0.34 14.68 0 14 C0.99 14.33 1.98 14.66 3 15 C1.125 18.875 1.125 18.875 0 20 C-3.05397552 20.44169067 -5.95030077 20.47716383 -9 20 C-11.75569447 17.81840855 -13.43588747 16.12822506 -15 13 C-15.04227317 8.62049912 -14.78687799 5.04917065 -12.125 1.5 C-7.92446302 -1.46508493 -4.88221221 -1.04618833 0 0 Z " fill="#3B2120" transform="translate(434,224)"/>
<path d="M0 0 C2.375 1.625 2.375 1.625 4 4 C4.25 7.75 4.25 7.75 4 11 C-1.94 11.495 -1.94 11.495 -8 12 C-8.33 11.01 -8.66 10.02 -9 9 C-5.52674819 7.8422494 -2.63932552 7.93133348 1 8 C-0.1375562 5.40858714 -0.1375562 5.40858714 -2 3 C-4.54290625 2.41649495 -4.54290625 2.41649495 -7 3 C-9.19666303 4.77966683 -9.19666303 4.77966683 -9.23046875 7.09375 C-9.21628906 7.8878125 -9.20210937 8.681875 -9.1875 9.5 C-9.18105469 10.2940625 -9.17460937 11.088125 -9.16796875 11.90625 C-9.12675836 14.05836391 -9.12675836 14.05836391 -8 16 C-6.27523089 16.95502158 -6.27523089 16.95502158 -4 17 C-0.78287055 15.64185993 -0.78287055 15.64185993 2 14 C2.33 15.32 2.66 16.64 3 18 C-1.01544992 20.67696661 -4.28325925 20.92517507 -9 20 C-12.15840511 17.42171012 -13.60779542 15.95340729 -14.40234375 11.99609375 C-14.61322962 7.55061953 -13.8796832 4.37618031 -11 1 C-7.1230868 -1.30519163 -4.28479093 -1.2763207 0 0 Z " fill="#3C2120" transform="translate(260,224)"/>
<path d="M0 0 C2.76525932 2.55254706 3.88582787 3.99528523 4.3125 7.75 C4 10 4 10 3 11 C0.98405418 11.23427778 -1.038474 11.41336124 -3.0625 11.5625 C-4.16722656 11.64628906 -5.27195312 11.73007813 -6.41015625 11.81640625 C-7.26480469 11.87699219 -8.11945313 11.93757812 -9 12 C-9 11.01 -9 10.02 -9 9 C-6.04335481 7.5216774 -3.25770263 7.93967217 0 8 C-0.66 6.35 -1.32 4.7 -2 3 C-4.37305578 2.58219121 -4.37305578 2.58219121 -7 3 C-9.06150487 5.01658383 -9.06150487 5.01658383 -10 8 C-9.77752165 11.73093378 -9.77752165 11.73093378 -9 15 C-6.83075548 16.32006573 -6.83075548 16.32006573 -4 17 C-0.71558321 15.73361924 -0.71558321 15.73361924 2 14 C2.33 15.32 2.66 16.64 3 18 C-1.03938336 20.69292224 -4.25802776 20.77233523 -9 20 C-12.0625 18.125 -12.0625 18.125 -14 15 C-14.68935601 11.52473415 -14.7295002 8.47082517 -14 5 C-9.6603918 -0.59581057 -6.85228389 -1.65399956 0 0 Z " fill="#3B2120" transform="translate(491,224)"/>
<path d="M0 0 C2.70095424 2.55879875 3.88972567 4.02958589 4.3125 7.75 C4 10 4 10 3 11 C0.98405418 11.23427778 -1.038474 11.41336124 -3.0625 11.5625 C-4.16722656 11.64628906 -5.27195312 11.73007813 -6.41015625 11.81640625 C-7.26480469 11.87699219 -8.11945313 11.93757812 -9 12 C-9 11.01 -9 10.02 -9 9 C-6.03 8.34 -3.06 7.68 0 7 C-0.66 5.68 -1.32 4.36 -2 3 C-4.37305578 2.58219121 -4.37305578 2.58219121 -7 3 C-9.06150487 5.01658383 -9.06150487 5.01658383 -10 8 C-9.77752165 11.73093378 -9.77752165 11.73093378 -9 15 C-6.83075548 16.32006573 -6.83075548 16.32006573 -4 17 C-0.71558321 15.73361924 -0.71558321 15.73361924 2 14 C2.33 15.32 2.66 16.64 3 18 C-1.03938336 20.69292224 -4.25802776 20.77233523 -9 20 C-12.0625 18.125 -12.0625 18.125 -14 15 C-14.68950813 11.52396728 -14.72410078 8.47226281 -14 5 C-9.9788142 -0.32535417 -6.44779372 -1.84222678 0 0 Z " fill="#3B2120" transform="translate(336,224)"/>
<path d="M0 0 C1.7015625 0.2784375 1.7015625 0.2784375 3.4375 0.5625 C4.613125 0.706875 5.78875 0.85125 7 1 C7.33 0.67 7.66 0.34 8 0 C15.24744027 -0.46757679 15.24744027 -0.46757679 17.72265625 1.0703125 C19.6578855 3.99386984 19.45223596 6.6605749 19.5625 10.125 C19.63993852 12.41999602 19.76919539 14.71532656 20 17 C20.66 17.33 21.32 17.66 22 18 C22 18.66 22 19.32 22 20 C20.02 19.67 18.04 19.34 16 19 C15.67 13.72 15.34 8.44 15 3 C12.69 3.33 10.38 3.66 8 4 C6.99740493 7.00778521 6.69685358 9.53820647 6.4375 12.6875 C6.35371094 13.68136719 6.26992188 14.67523438 6.18359375 15.69921875 C6.12300781 16.45847656 6.06242187 17.21773437 6 18 C6.66 18 7.32 18 8 18 C8 18.66 8 19.32 8 20 C5.36 20 2.72 20 0 20 C0 19.34 0 18.68 0 18 C0.66 18 1.32 18 2 18 C2 12.72 2 7.44 2 2 C1.34 2 0.68 2 0 2 C0 1.34 0 0.68 0 0 Z " fill="#3C2221" transform="translate(440,224)"/>
<path d="M0 0 C1.7015625 0.2784375 1.7015625 0.2784375 3.4375 0.5625 C4.613125 0.706875 5.78875 0.85125 7 1 C7.33 0.67 7.66 0.34 8 0 C15.24744027 -0.46757679 15.24744027 -0.46757679 17.72265625 1.0703125 C19.6578855 3.99386984 19.45223596 6.6605749 19.5625 10.125 C19.63993852 12.41999602 19.76919539 14.71532656 20 17 C20.66 17.33 21.32 17.66 22 18 C22 18.66 22 19.32 22 20 C17.125 19.125 17.125 19.125 16 18 C15.76346477 15.47403741 15.57826308 12.96892793 15.4375 10.4375 C15.39431641 9.72658203 15.35113281 9.01566406 15.30664062 8.28320312 C15.20028223 6.52238088 15.09961154 4.7612168 15 3 C12.06556598 3.26656572 12.06556598 3.26656572 9 4 C6.82669609 7.25995586 6.75078541 8.22979966 6.8125 12 C6.81894531 12.86625 6.82539062 13.7325 6.83203125 14.625 C6.91169563 17.14927465 6.91169563 17.14927465 8 20 C5.36 20 2.72 20 0 20 C0 19.34 0 18.68 0 18 C0.66 17.67 1.32 17.34 2 17 C2 12.38 2 7.76 2 3 C1.34 2.67 0.68 2.34 0 2 C0 1.34 0 0.68 0 0 Z " fill="#3D2221" transform="translate(56,224)"/>
<path d="M0 0 C0.33 1.65 0.66 3.3 1 5 C0.01 5.33 -0.98 5.66 -2 6 C-2 4.68 -2 3.36 -2 2 C-4.64 2 -7.28 2 -10 2 C-8.995526 4.64566377 -8.45409522 5.77503539 -5.87109375 7.0546875 C-5.06800781 7.32539063 -4.26492188 7.59609375 -3.4375 7.875 C-1.01171875 8.86328125 -1.01171875 8.86328125 1 10 C2.25 13.0625 2.25 13.0625 2 16 C0.47178557 18.60695402 -0.87637113 18.96066354 -3.75 19.875 C-7.98456476 20.03786788 -10.23513573 18.88243213 -14 17 C-13.67 15.68 -13.34 14.36 -13 13 C-12.01 13.33 -11.02 13.66 -10 14 C-10 14.66 -10 15.32 -10 16 C-7.36 16 -4.72 16 -2 16 C-2 14.68 -2 13.36 -2 12 C-2.61488281 11.82984375 -3.22976563 11.6596875 -3.86328125 11.484375 C-10.38184791 9.52984464 -10.38184791 9.52984464 -13.1875 7.125 C-14 5 -14 5 -13.5 2.375 C-12 0 -12 0 -9.8125 -1.4375 C-6.08016474 -2.18396705 -3.54303006 -1.2504812 0 0 Z " fill="#3C2220" transform="translate(281,225)"/>
<path d="M0 0 C1 1 1 1 1.0625 3.5625 C1.041875 4.366875 1.02125 5.17125 1 6 C0.01 6.33 -0.98 6.66 -2 7 C-2.33 5.68 -2.66 4.36 -3 3 C-5.37374861 2.66574265 -5.37374861 2.66574265 -8 3 C-10.54823595 5.28462533 -10.96426038 6.64975169 -11.3125 10.0625 C-11.20953488 13.18789679 -11.20953488 13.18789679 -9 16 C-4.94554358 16.43132515 -3.45029042 16.30019361 0 14 C0.33 15.32 0.66 16.64 1 18 C-2.68849031 20.45899354 -5.71887962 20.80114533 -10 20 C-13.61010155 17.46524785 -14.76871396 15.79504576 -16 11.5625 C-16 7.41043888 -15.33117811 5.41906123 -13 2 C-8.67640255 -1.82947203 -5.33713098 -1.0674262 0 0 Z " fill="#3C2221" transform="translate(382,224)"/>
<path d="M0 0 C0.99 0 1.98 0 3 0 C3 0.99 3 1.98 3 3 C4.98 2.67 6.96 2.34 9 2 C9 2.99 9 3.98 9 5 C7.02 5.33 5.04 5.66 3 6 C3 10.62 3 15.24 3 20 C4.98 19.34 6.96 18.68 9 18 C9 19.32 9 20.64 9 22 C6.69 22.33 4.38 22.66 2 23 C-0.34290892 20.51565563 -0.97982934 19.22268407 -1.29296875 15.765625 C-1.25816406 14.60546875 -1.22335937 13.4453125 -1.1875 12.25 C-1.16042969 11.07953125 -1.13335937 9.9090625 -1.10546875 8.703125 C-1.07066406 7.81109375 -1.03585937 6.9190625 -1 6 C-1.99 6 -2.98 6 -4 6 C-4 5.01 -4 4.02 -4 3 C-2.68 3 -1.36 3 0 3 C0 2.01 0 1.02 0 0 Z " fill="#3D2220" transform="translate(466,221)"/>
<path d="M0 0 C0.99 0 1.98 0 3 0 C3 0.66 3 1.32 3 2 C4.98 2 6.96 2 9 2 C9 2.99 9 3.98 9 5 C7.02 5.33 5.04 5.66 3 6 C3 10.62 3 15.24 3 20 C4.65 19.34 6.3 18.68 8 18 C8 19.32 8 20.64 8 22 C7.67 22.33 7.34 22.66 7 23 C3.5 22.6875 3.5 22.6875 0 22 C-1.50156874 18.99686252 -1.09281204 16.20932478 -1.0625 12.875 C-1.05347656 11.59367188 -1.04445313 10.31234375 -1.03515625 8.9921875 C-1.02355469 8.00476563 -1.01195312 7.01734375 -1 6 C-1.99 6 -2.98 6 -4 6 C-4 5.01 -4 4.02 -4 3 C-3.01 2.67 -2.02 2.34 -1 2 C-0.67 1.34 -0.34 0.68 0 0 Z " fill="#3A231E" transform="translate(288,221)"/>
<path d="M0 0 C0.78375 0.04125 1.5675 0.0825 2.375 0.125 C2.02651766 2.70376935 1.73948283 4.62623403 0.1875 6.75 C-1.625 8.125 -1.625 8.125 -4.5625 9.5 C-8.97950002 11.84371429 -10.96183234 14.10703489 -12.53515625 18.89453125 C-13.28948691 21.62766422 -13.98643848 24.36273768 -14.625 27.125 C-15.285 27.125 -15.945 27.125 -16.625 27.125 C-16.625 22.175 -16.625 17.225 -16.625 12.125 C-14.975 11.795 -13.325 11.465 -11.625 11.125 C-8.47954155 8.53462245 -6.65080275 5.62411384 -4.625 2.125 C-2.625 0.125 -2.625 0.125 0 0 Z " fill="#DAB05F" transform="translate(61.625,132.875)"/>
<path d="M0 0 C0.66 0 1.32 0 2 0 C2 0.99 2 1.98 2 3 C3.98 2.67 5.96 2.34 8 2 C8 2.99 8 3.98 8 5 C7.67 5.33 7.34 5.66 7 6 C5.35 6 3.7 6 2 6 C2.33 10.29 2.66 14.58 3 19 C3.99 19.33 4.98 19.66 6 20 C6 19.34 6 18.68 6 18 C6.99 18.33 7.98 18.66 9 19 C8.34 20.32 7.68 21.64 7 23 C4.125 23.125 4.125 23.125 1 23 C-1 21 -1 21 -1.1953125 17.5234375 C-1.18201493 16.14049032 -1.15816232 14.75761346 -1.125 13.375 C-1.11597656 12.66859375 -1.10695313 11.9621875 -1.09765625 11.234375 C-1.07407603 9.48943902 -1.03820461 7.74467705 -1 6 C-1.99 6 -2.98 6 -4 6 C-4 5.01 -4 4.02 -4 3 C-3.01 2.67 -2.02 2.34 -1 2 C-0.67 1.34 -0.34 0.68 0 0 Z " fill="#3C2221" transform="translate(346,221)"/>
<path d="M0 0 C2.66666667 0 5.33333333 0 8 0 C9.03125 -0.020625 10.0625 -0.04125 11.125 -0.0625 C14 0 14 0 15 1 C15.04063832 2.66617115 15.042721 4.33388095 15 6 C14.01 6 13.02 6 12 6 C12 4.68 12 3.36 12 2 C10.00016466 2.79117904 10.00016466 2.79117904 8 4 C6.99503148 7.01490557 6.89664697 9.04181692 6.9375 12.1875 C6.95103516 13.53908203 6.95103516 13.53908203 6.96484375 14.91796875 C6.97644531 15.60503906 6.98804688 16.29210937 7 17 C7.66 17.33 8.32 17.66 9 18 C9 18.66 9 19.32 9 20 C6.03 20 3.06 20 0 20 C0 19.34 0 18.68 0 18 C0.66 17.67 1.32 17.34 2 17 C2 12.38 2 7.76 2 3 C1.34 2.67 0.68 2.34 0 2 C0 1.34 0 0.68 0 0 Z " fill="#3D2221" transform="translate(497,224)"/>
<path d="M0 0 C0.99 0.33 1.98 0.66 3 1 C3 3.64 3 6.28 3 9 C2.34 9 1.68 9 1 9 C1 8.01 1 7.02 1 6 C0.01 6 -0.98 6 -2 6 C-2 7.32 -2 8.64 -2 10 C-3.62324086 10.22162329 -5.248721 10.42689803 -6.875 10.625 C-7.77992187 10.74101563 -8.68484375 10.85703125 -9.6171875 10.9765625 C-10.40351562 10.98429687 -11.18984375 10.99203125 -12 11 C-12.66 10.34 -13.32 9.68 -14 9 C-13.625 5.875 -13.625 5.875 -13 3 C-11.35 2.67 -9.7 2.34 -8 2 C-7.67 2.99 -7.34 3.98 -7 5 C-8.32 5.33 -9.64 5.66 -11 6 C-11 6.66 -11 7.32 -11 8 C-9.02 8 -7.04 8 -5 8 C-5 5.69 -5 3.38 -5 1 C-4.34 1 -3.68 1 -3 1 C-3 1.99 -3 2.98 -3 4 C-2.01 4 -1.02 4 0 4 C0 2.68 0 1.36 0 0 Z " fill="#292827" transform="translate(63,74)"/>
<path d="M0 0 C2.97 0 5.94 0 9 0 C8.67 4.95 8.34 9.9 8 15 C7.01 15 6.02 15 5 15 C5 14.34 5 13.68 5 13 C3.02 12.34 1.04 11.68 -1 11 C-1 10.34 -1 9.68 -1 9 C1.31 9.33 3.62 9.66 6 10 C6.04241723 7.66705225 6.04092937 5.33297433 6 3 C5.67 2.67 5.34 2.34 5 2 C5 3.32 5 4.64 5 6 C3.35 6.33 1.7 6.66 0 7 C0 4.69 0 2.38 0 0 Z " fill="#292726" transform="translate(124,136)"/>
<path d="M0 0 C0 1.32 0 2.64 0 4 C0.66 4 1.32 4 2 4 C2 4.66 2 5.32 2 6 C1.38125 6.12375 0.7625 6.2475 0.125 6.375 C-2.19120832 6.87197356 -2.19120832 6.87197356 -4 9 C-5.32 7.35 -6.64 5.7 -8 4 C-8 7.10551666 -7.4606285 8.35261084 -6 11 C-6.99 11.33 -7.98 11.66 -9 12 C-9.37125 11.0409375 -9.37125 11.0409375 -9.75 10.0625 C-10.81562433 7.81258459 -10.81562433 7.81258459 -13.125 7.25 C-13.74375 7.1675 -14.3625 7.085 -15 7 C-15 6.34 -15 5.68 -15 5 C-12.98828125 3.45703125 -12.98828125 3.45703125 -10.3125 1.8125 C-9.00732422 0.98685547 -9.00732422 0.98685547 -7.67578125 0.14453125 C-4.58456202 -1.17769829 -3.15862109 -0.98457919 0 0 Z M-4 1 C-4 1.99 -4 2.98 -4 4 C-3.34 3.67 -2.68 3.34 -2 3 C-2 2.34 -2 1.68 -2 1 C-2.66 1 -3.32 1 -4 1 Z " fill="#2A2927" transform="translate(44,82)"/>
<path d="M0 0 C0.66 0 1.32 0 2 0 C1.67 2.31 1.34 4.62 1 7 C2.32 7.33 3.64 7.66 5 8 C5.144375 7.360625 5.28875 6.72125 5.4375 6.0625 C6 4 6 4 7 3 C9.4375 2.8125 9.4375 2.8125 12 3 C14 5 14 5 14.3125 7.5 C14.209375 8.325 14.10625 9.15 14 10 C11 12 11 12 9 11.6875 C8.34 11.460625 7.68 11.23375 7 11 C3.99580359 9.9986012 1.12290635 9.48578543 -2 9 C-1.125 1.125 -1.125 1.125 0 0 Z M8 5 C8 6.32 8 7.64 8 9 C9.32 9 10.64 9 12 9 C11.67 7.68 11.34 6.36 11 5 C10.01 5 9.02 5 8 5 Z " fill="#2A2928" transform="translate(79,75)"/>
<path d="M0 0 C2.97 0.495 2.97 0.495 6 1 C6.07347656 2.71509766 6.07347656 2.71509766 6.1484375 4.46484375 C6.22345189 5.95575473 6.29900028 7.44663892 6.375 8.9375 C6.4059375 9.69224609 6.436875 10.44699219 6.46875 11.22460938 C6.5726315 13.15507395 6.77895614 15.07942081 7 17 C7.66 17.33 8.32 17.66 9 18 C9 18.66 9 19.32 9 20 C6.03 20 3.06 20 0 20 C0 19.34 0 18.68 0 18 C0.66 17.67 1.32 17.34 2 17 C2 12.38 2 7.76 2 3 C1.34 2.67 0.68 2.34 0 2 C0 1.34 0 0.68 0 0 Z " fill="#3C2221" transform="translate(356,224)"/>
<path d="M0 0 C4.55555556 0.55555556 4.55555556 0.55555556 6 2 C6.29386153 5.72224599 6.14809171 6.77786243 4 10 C3.83300768 13.12521833 3.83300768 13.12521833 4 16 C1.03 15.67 -1.94 15.34 -5 15 C-4.67 14.01 -4.34 13.02 -4 12 C-2.35 12.33 -0.7 12.66 1 13 C1 12.01 1 11.02 1 10 C-0.94009522 8.29467677 -0.94009522 8.29467677 -3 7 C-2.25 2.25 -2.25 2.25 0 0 Z M0 3 C0 4.32 0 5.64 0 7 C1.32 6.67 2.64 6.34 4 6 C4 5.01 4 4.02 4 3 C2.68 3 1.36 3 0 3 Z " fill="#292828" transform="translate(11,113)"/>
<path d="M0 0 C3.65316671 1.24976756 4.78065836 1.67098753 7 5 C7.4140625 7.48046875 7.4140625 7.48046875 7.625 10.1875 C7.69976562 11.08855469 7.77453125 11.98960938 7.8515625 12.91796875 C7.90054688 13.60503906 7.94953125 14.29210937 8 15 C0.07433921 7.28854626 0.07433921 7.28854626 -0.1875 2.75 C-0.125625 1.8425 -0.06375 0.935 0 0 Z " fill="#F5D077" transform="translate(42,98)"/>
<path d="M0 0 C0.33 1.98 0.66 3.96 1 6 C1.66 6 2.32 6 3 6 C3 6.99 3 7.98 3 9 C0.09399739 10.25664978 -1.79604584 11 -5 11 C-4.34 9.35 -3.68 7.7 -3 6 C-4.65 5.67 -6.3 5.34 -8 5 C-8 4.01 -8 3.02 -8 2 C-5.09399739 0.74335022 -3.20395416 0 0 0 Z " fill="#292827" transform="translate(16,155)"/>
<path d="M0 0 C-1.32 1.32 -2.64 2.64 -4 4 C-2.35 4.99 -0.7 5.98 1 7 C0.67 7.66 0.34 8.32 0 9 C-2.64860427 9.59355614 -5.29197322 9.74209269 -8 10 C-8.04254356 8.00045254 -8.04080783 5.99958364 -8 4 C-7.67 3.67 -7.34 3.34 -7 3 C-7.66 2.67 -8.32 2.34 -9 2 C-9 1.34 -9 0.68 -9 0 C-5.62182575 -0.84454356 -3.32534757 -1.10844919 0 0 Z " fill="#292726" transform="translate(132,125)"/>
<path d="M0 0 C0.66 0 1.32 0 2 0 C2.28875 0.639375 2.5775 1.27875 2.875 1.9375 C3.82823451 4.15206079 3.82823451 4.15206079 6 5 C6 5.66 6 6.32 6 7 C5.34 7.66 4.68 8.32 4 9 C3.20207031 8.95875 2.40414062 8.9175 1.58203125 8.875 C-1.10903978 8.7199728 -1.10903978 8.7199728 -2.80078125 10.75 C-3.29964844 11.4925 -3.79851563 12.235 -4.3125 13 C-4.82425781 13.7425 -5.33601563 14.485 -5.86328125 15.25 C-6.23839844 15.8275 -6.61351562 16.405 -7 17 C-7.33 16.34 -7.66 15.68 -8 15 C-7.6390625 14.55269531 -7.278125 14.10539063 -6.90625 13.64453125 C-3.86557578 9.76135613 -3.86557578 9.76135613 -2.6875 5.0625 C-2.790625 4.381875 -2.89375 3.70125 -3 3 C-2.34 3 -1.68 3 -1 3 C-0.67 2.01 -0.34 1.02 0 0 Z " fill="#EABF6C" transform="translate(59,123)"/>
<path d="M0 0 C3.44165321 0.35299007 5.06872538 1.04581692 8 3 C6.79618552 5.49361571 5.54571278 7.68143083 4 10 C1.13275314 9.42655063 0.1385485 9.1385485 -2 7 C-2.25 4.5 -2.25 4.5 -2 2 C-1.34 1.34 -0.68 0.68 0 0 Z M1 3 C1 4.32 1 5.64 1 7 C2.32 6.34 3.64 5.68 5 5 C4.67 4.34 4.34 3.68 4 3 C3.01 3 2.02 3 1 3 Z " fill="#272625" transform="translate(27,178)"/>
<path d="M0 0 C2.5 0.125 2.5 0.125 5 1 C6.4375 2.8125 6.4375 2.8125 7 5 C6.125 7.25 6.125 7.25 5 9 C2.125 9.125 2.125 9.125 -1 9 C-1.66 8.34 -2.32 7.68 -3 7 C-2.67028521 3.70285207 -2.3773161 2.3773161 0 0 Z M0 3 C0 4.32 0 5.64 0 7 C1.32 6.67 2.64 6.34 4 6 C4 5.01 4 4.02 4 3 C2.68 3 1.36 3 0 3 Z " fill="#2B2A28" transform="translate(70,74)"/>
<path d="M0 0 C2.5 0.0625 2.5 0.0625 5 1 C6.3125 3.5625 6.3125 3.5625 7 6 C5.68 7.32 4.36 8.64 3 10 C0.525 9.01 0.525 9.01 -2 8 C-2.125 5.125 -2.125 5.125 -2 2 C-1.34 1.34 -0.68 0.68 0 0 Z M0 3 C0 4.32 0 5.64 0 7 C1.32 7 2.64 7 4 7 C4 5.68 4 4.36 4 3 C2.68 3 1.36 3 0 3 Z " fill="#2A2928" transform="translate(120,107)"/>
<path d="M0 0 C2.6875 0.875 2.6875 0.875 5 2 C5.1875 4.875 5.1875 4.875 5 8 C2 10 2 10 -0.0625 9.75 C-2 9 -2 9 -4 7 C-3.8125 4.5 -3.8125 4.5 -3 2 C-2.01 1.34 -1.02 0.68 0 0 Z M-1 3 C-1 4.32 -1 5.64 -1 7 C0.32 7 1.64 7 3 7 C3 5.68 3 4.36 3 3 C1.68 3 0.36 3 -1 3 Z " fill="#2A2928" transform="translate(125,150)"/>
<path d="M0 0 C1 1 1 1 1.1875 3.4375 C1 6 1 6 -1 8 C-3.5 8.25 -3.5 8.25 -6 8 C-6.66 7.34 -7.32 6.68 -8 6 C-7.75 2.9375 -7.75 2.9375 -7 0 C-4.31633121 -1.3418344 -2.84719317 -0.73004953 0 0 Z M-4 1 C-4.66 2.32 -5.32 3.64 -6 5 C-4.68 5.33 -3.36 5.66 -2 6 C-1.67 4.68 -1.34 3.36 -1 2 C-1.99 1.67 -2.98 1.34 -4 1 Z " fill="#2A2928" transform="translate(122,167)"/>
<path d="M0 0 C0.66 0.33 1.32 0.66 2 1 C1.67 2.32 1.34 3.64 1 5 C1.99 5 2.98 5 4 5 C3 8 3 8 1.125 9.1875 C-1 10 -1 10 -4 10 C-4.33 7.69 -4.66 5.38 -5 3 C-3.35 2.67 -1.7 2.34 0 2 C0 1.34 0 0.68 0 0 Z M-3 5 C-3 5.66 -3 6.32 -3 7 C-2.01 6.67 -1.02 6.34 0 6 C-0.99 5.67 -1.98 5.34 -3 5 Z " fill="#292827" transform="translate(19,164)"/>
<path d="M0 0 C1.2375 0.1546875 1.2375 0.1546875 2.5 0.3125 C4.5 3.3125 4.5 3.3125 4.1875 5.9375 C3.5 8.3125 3.5 8.3125 2.5 9.3125 C0.0625 9.5 0.0625 9.5 -2.5 9.3125 C-4.5 7.3125 -4.5 7.3125 -4.75 4.8125 C-4.40047575 1.3172575 -3.47557682 0.4344471 0 0 Z M-1.5 2.3125 C-1.83 3.6325 -2.16 4.9525 -2.5 6.3125 C-1.18 6.6425 0.14 6.9725 1.5 7.3125 C1.83 6.3225 2.16 5.3325 2.5 4.3125 C1.18 3.6525 -0.14 2.9925 -1.5 2.3125 Z " fill="#2A2928" transform="translate(9.5,129.6875)"/>
<path d="M0 0 C0 0.66 0 1.32 0 2 C1.65 2.33 3.3 2.66 5 3 C4.125 7.875 4.125 7.875 3 9 C1.00041636 9.04080783 -1.00045254 9.04254356 -3 9 C-4.1875 6.75 -4.1875 6.75 -5 4 C-2.83783784 0 -2.83783784 0 0 0 Z M-1 2 C-1.33 3.65 -1.66 5.3 -2 7 C-0.68 6.67 0.64 6.34 2 6 C2 5.34 2 4.68 2 4 C1.34 4 0.68 4 0 4 C-0.33 3.34 -0.66 2.68 -1 2 Z " fill="#292827" transform="translate(17,104)"/>
<path d="M0 0 C1 1 1 1 1.1875 3.4375 C1 6 1 6 -1 8 C-1.99 8 -2.98 8 -4 8 C-4 7.34 -4 6.68 -4 6 C-5.32 5.67 -6.64 5.34 -8 5 C-7.625 2.5625 -7.625 2.5625 -7 0 C-4.31633121 -1.3418344 -2.84719317 -0.73004953 0 0 Z M-5 1 C-5.2236068 3.9254644 -5.2236068 3.9254644 -4 6 C-3.01 5.67 -2.02 5.34 -1 5 C-1.33 3.68 -1.66 2.36 -2 1 C-2.99 1 -3.98 1 -5 1 Z " fill="#2A2927" transform="translate(116,175)"/>
<path d="M0 0 C0.99 0.33 1.98 0.66 3 1 C4.1875 3.5625 4.1875 3.5625 5 6 C3.35 7.32 1.7 8.64 0 10 C-1.32 9.34 -2.64 8.68 -4 8 C-4 6.68 -4 5.36 -4 4 C-3.34 4.33 -2.68 4.66 -2 5 C-2 4.34 -2 3.68 -2 3 C-1.01 3 -0.02 3 1 3 C0.67 2.01 0.34 1.02 0 0 Z " fill="#292827" transform="translate(23,171)"/>
<path d="M0 0 C1.2065625 0.0309375 1.2065625 0.0309375 2.4375 0.0625 C3.0975 1.3825 3.7575 2.7025 4.4375 4.0625 C2.4575 3.4025 0.4775 2.7425 -1.5625 2.0625 C-0.9025 3.3825 -0.2425 4.7025 0.4375 6.0625 C1.4275 5.7325 2.4175 5.4025 3.4375 5.0625 C3.1075 6.3825 2.7775 7.7025 2.4375 9.0625 C-2.3125 8.3125 -2.3125 8.3125 -4.5625 6.0625 C-3.83457637 0.09352625 -3.83457637 0.09352625 0 0 Z " fill="#292827" transform="translate(97.5625,81.9375)"/>
<path d="M0 0 C1.04449911 3.13349732 0.93423645 3.98968256 0 7 C0.99 7.33 1.98 7.66 3 8 C3 8.33 3 8.66 3 9 C-0.3 8.67 -3.6 8.34 -7 8 C-7 7.01 -7 6.02 -7 5 C-5.46875 3.61328125 -5.46875 3.61328125 -3.5 2.3125 C-2.8503125 1.87550781 -2.200625 1.43851563 -1.53125 0.98828125 C-1.0259375 0.66214844 -0.520625 0.33601562 0 0 Z " fill="#2A2928" transform="translate(13,145)"/>
<path d="M0 0 C0.33 1.65 0.66 3.3 1 5 C0.34 5 -0.32 5 -1 5 C-1 4.01 -1 3.02 -1 2 C-1.66 3.65 -2.32 5.3 -3 7 C-4.32 7 -5.64 7 -7 7 C-7.33 5.02 -7.66 3.04 -8 1 C-4.93251126 -0.86240388 -3.40254489 -1.2151946 0 0 Z " fill="#292827" transform="translate(129,117)"/>
<path d="M0 0 C2.5 -0.3125 2.5 -0.3125 5 0 C7 2 7 2 7 6 C6.34 6 5.68 6 5 6 C4.67 5.01 4.34 4.02 4 3 C3.34 3 2.68 3 2 3 C2.33 4.98 2.66 6.96 3 9 C1.68 8.67 0.36 8.34 -1 8 C-1.625 5.6875 -1.625 5.6875 -2 3 C-1.34 2.01 -0.68 1.02 0 0 Z " fill="#2A2928" transform="translate(115,100)"/>
<path d="M0 0 C1.65 0.33 3.3 0.66 5 1 C5.125 3.375 5.125 3.375 5 6 C4.34 6.66 3.68 7.32 3 8 C0.875 7.625 0.875 7.625 -1 7 C-0.67 6.01 -0.34 5.02 0 4 C0 2.68 0 1.36 0 0 Z " fill="#3D2220" transform="translate(80,239)"/>
<path d="M0 0 C3.96 1.98 3.96 1.98 8 4 C8 4.66 8 5.32 8 6 C7.360625 6.103125 6.72125 6.20625 6.0625 6.3125 C5.381875 6.539375 4.70125 6.76625 4 7 C3.67 7.99 3.34 8.98 3 10 C2.34 10 1.68 10 1 10 C0.63883954 8.5225254 0.28624952 7.04295325 -0.0625 5.5625 C-0.25972656 4.73878906 -0.45695312 3.91507813 -0.66015625 3.06640625 C-0.82837891 2.04353516 -0.82837891 2.04353516 -1 1 C-0.67 0.67 -0.34 0.34 0 0 Z " fill="#292727" transform="translate(104,180)"/>
<path d="M0 0 C0.66 0.33 1.32 0.66 2 1 C2.33 1.99 2.66 2.98 3 4 C3.99 4 4.98 4 6 4 C6 4.66 6 5.32 6 6 C5.195625 6.28875 4.39125 6.5775 3.5625 6.875 C0.8673532 7.73262568 0.8673532 7.73262568 0 10 C-0.99 9.67 -1.98 9.34 -3 9 C-2.01 6.03 -1.02 3.06 0 0 Z " fill="#292928" transform="translate(104,85)"/>
<path d="M0 0 C0.66 0 1.32 0 2 0 C2.28875 0.94875 2.5775 1.8975 2.875 2.875 C3.76825109 6.05211578 3.76825109 6.05211578 6 8 C2.06329512 9.31223496 -0.12488144 8.24296256 -4 7 C-4 6.34 -4 5.68 -4 5 C-2.68 4.67 -1.36 4.34 0 4 C0 2.68 0 1.36 0 0 Z " fill="#282727" transform="translate(20,96)"/>
<path d="M0 0 C2.64 0.99 5.28 1.98 8 3 C7.67 3.99 7.34 4.98 7 6 C5.02 5.34 3.04 4.68 1 4 C0.67 4.66 0.34 5.32 0 6 C-0.99 5.67 -1.98 5.34 -3 5 C-2.01 3.35 -1.02 1.7 0 0 Z " fill="#2A2928" transform="translate(120,159)"/>
<path d="M0 0 C0.66 0 1.32 0 2 0 C2 0.66 2 1.32 2 2 C4.31 2 6.62 2 9 2 C9 2.66 9 3.32 9 4 C6.69 4 4.38 4 2 4 C2.33 4.99 2.66 5.98 3 7 C2.01 7 1.02 7 0 7 C0 4.69 0 2.38 0 0 Z " fill="#2A2928" transform="translate(5,140)"/>
<path d="M0 0 C0.66 0 1.32 0 2 0 C2.33 0.66 2.66 1.32 3 2 C3.99 1.67 4.98 1.34 6 1 C6.33 2.65 6.66 4.3 7 6 C4.625 6.125 4.625 6.125 2 6 C1.34 5.34 0.68 4.68 0 4 C0 2.68 0 1.36 0 0 Z " fill="#ECC568" transform="translate(62,121)"/>
<path d="M0 0 C1 3 1 3 0.22265625 4.82421875 C-0.8515625 6.54947917 -1.92578125 8.27473958 -3 10 C-3.66 9.67 -4.32 9.34 -5 9 C-3.7508258 5.54074837 -2.32472205 2.85306797 0 0 Z " fill="#2E3B42" transform="translate(116,158)"/>
<path d="M0 0 C1.32 0.99 2.64 1.98 4 3 C3.67 3.99 3.34 4.98 3 6 C1.35 6 -0.3 6 -2 6 C-1.67 5.01 -1.34 4.02 -1 3 C-1.66 2.67 -2.32 2.34 -3 2 C-2.01 2 -1.02 2 0 2 C0 1.34 0 0.68 0 0 Z " fill="#2D8D56" transform="translate(27,92)"/>
<path d="M0 0 C0.33 0.66 0.66 1.32 1 2 C1.99 2.33 2.98 2.66 4 3 C3.67 3.99 3.34 4.98 3 6 C1.35 6 -0.3 6 -2 6 C-1.67 5.01 -1.34 4.02 -1 3 C-1.66 2.67 -2.32 2.34 -3 2 C-2.01 2 -1.02 2 0 2 C0 1.34 0 0.68 0 0 Z " fill="#2D8C55" transform="translate(111,92)"/>
<path d="M0 0 C0.66 0 1.32 0 2 0 C3.25664978 2.90600261 4 4.79604584 4 8 C3.34 8 2.68 8 2 8 C0.74335022 5.09399739 0 3.20395416 0 0 Z " fill="#2A2A28" transform="translate(45,79)"/>
<path d="M0 0 C1.98 0.495 1.98 0.495 4 1 C3.67 1.99 3.34 2.98 3 4 C1.68 4 0.36 4 -1 4 C-0.67 2.68 -0.34 1.36 0 0 Z " fill="#3D2120" transform="translate(359,216)"/>
<path d="M0 0 C1.98 0.495 1.98 0.495 4 1 C4 1.99 4 2.98 4 4 C2.35 3.67 0.7 3.34 -1 3 C-0.67 2.01 -0.34 1.02 0 0 Z " fill="#39201E" transform="translate(148,216)"/>
<path d="M0 0 C0.99 0 1.98 0 3 0 C3 1.32 3 2.64 3 4 C1.68 4 0.36 4 -1 4 C-0.67 2.68 -0.34 1.36 0 0 Z " fill="#39201F" transform="translate(49,216)"/>
</svg>
